<svg width="160" height="160" viewBox="0 0 160 160" fill="none" xmlns="http://www.w3.org/2000/svg">
<rect width="160" height="160" fill="#F7E296"/>
<g clip-path="url(#clip0)">
<path d="M119.821 30.011H40.33C38.569 30.011 37.142 31.438 37.142 33.199V79.612C37.142 81.375 38.569 82.801 40.33 82.801H119.822C121.584 82.801 123.011 81.374 123.011 79.612V33.199C123.011 31.438 121.583 30.011 119.821 30.011ZM45.392 63.236H45.166C43.404 63.236 41.977 61.807 41.977 60.047V52.764C41.977 51.003 43.404 49.576 45.166 49.576H45.392V63.236ZM106.623 78.408H50.341V34.402H106.623V78.408ZM115.4 60.552C113.111 60.552 111.254 58.697 111.254 56.405C111.254 54.113 113.11 52.258 115.4 52.258C117.691 52.258 119.548 54.113 119.548 56.405C119.548 58.697 117.691 60.552 115.4 60.552Z" fill="#363636"/>
<path d="M91.6539 26H68.4969V28.758H91.6539V26Z" fill="#363636"/>
<path d="M83.6079 90.861V87.888H91.6539V85.13H68.4979V87.888H76.5429V123.134C74.4039 124.072 72.9079 126.206 72.9079 128.693V143H87.2429V128.693C87.2429 126.207 85.7479 124.072 83.6069 123.136V95.146H88.4029L93.4539 96.359V89.648L88.4029 90.861H83.6079Z" fill="#363636"/>
</g>
<defs>
<clipPath id="clip0">
<rect width="86" height="117" fill="white" transform="translate(37 26)"/>
</clipPath>
</defs>
</svg>
