<svg width="160" height="160" viewBox="0 0 160 160" fill="none" xmlns="http://www.w3.org/2000/svg">
<rect width="160" height="160" fill="#F7E296"/>
<g clip-path="url(#clip0)">
<path d="M26.0523 46.2579C20.5074 46.7452 15.8384 47.8507 14.5753 48.9303C13.8526 49.5465 13.8526 49.5465 14.3429 50.0865C14.9874 50.8062 18.0563 51.7315 21.5905 52.3228C25.5885 52.9908 34.1003 53.0162 35.3136 52.3741C36.5255 51.7061 36.9376 50.9605 36.9376 49.3927C36.9376 47.774 36.3185 46.9767 34.7198 46.5402C33.274 46.1543 28.9415 46 26.0523 46.2579Z" fill="#363636"/>
<path d="M39.7744 46.4883C39.645 46.7715 39.5161 48.5962 39.5161 50.6001C39.5161 54.6611 39.6714 54.3784 37.3242 54.5332L36.2934 54.6103L36.164 57.1547L36.0351 59.6986L34.8486 59.9818C32.2695 60.6498 30.8496 62.577 31.0571 65.2762C31.185 67.2034 32.0879 68.617 33.6357 69.3631C34.7446 69.8763 35.1054 69.9012 44.8818 69.9012C50.4267 69.9012 55.019 69.9798 55.0703 70.0819C55.1211 70.2103 53.9609 79.4891 52.4907 90.7206C51.0459 101.951 49.8076 111.718 49.7822 112.387C49.7309 114.004 50.6084 115.008 52.1299 115.008C53.3672 115.008 54.1416 114.366 54.4512 113.106C54.5806 112.593 55.9468 102.773 57.4693 91.285C58.9913 79.8221 60.3321 70.4163 60.4097 70.4163C60.5127 70.4163 61.4927 71.8294 62.6021 73.552C65.542 78.178 65.001 77.8689 70.2374 77.8689H74.5958V80.6711V83.4987L69.463 83.5758C64.7428 83.6529 64.253 83.7028 63.5817 84.191C62.0089 85.3482 61.9567 85.606 61.9567 95.1676C61.9567 104.702 61.9831 104.96 63.4792 106.217L64.3303 106.913H80.0129H95.6955L96.5461 106.217C98.0422 104.96 98.0666 104.702 98.0666 95.1676C98.0666 85.6061 98.0158 85.3483 96.4436 84.191C95.7727 83.7027 95.2825 83.6529 90.5618 83.5758L85.43 83.4987V80.6711V77.8689H89.7894C95.0238 77.8689 94.4828 78.178 97.4232 73.552C98.5336 71.8293 99.513 70.4163 99.6166 70.4163C99.6928 70.4163 101.035 79.8221 102.556 91.285C104.079 102.773 105.446 112.593 105.575 113.106C105.884 114.366 106.657 115.008 107.896 115.008C109.417 115.008 110.295 114.004 110.243 112.387C110.217 111.718 108.979 101.951 107.534 90.7206C106.065 79.4892 104.903 70.2103 104.956 70.0819C105.006 69.9798 109.597 69.9012 115.145 69.9012C124.92 69.9012 125.281 69.8763 126.389 69.3631C127.937 68.617 128.839 67.2034 128.968 65.2762C129.175 62.577 127.757 60.6497 125.177 59.9818L123.99 59.6986L123.863 57.1547L123.734 54.6103L122.702 54.5332C120.355 54.3784 120.508 54.6611 120.508 50.6001C120.508 48.5962 120.38 46.7715 120.251 46.4883C120.045 46.1284 119.708 46 118.884 46C118.265 46 117.646 46.1284 117.464 46.3086C117.258 46.5142 117.155 47.7739 117.155 50.2407C117.155 52.708 117.052 53.9678 116.845 54.1728C116.665 54.3525 115.944 54.4809 115.196 54.4809C113.57 54.4809 113.544 54.5331 113.544 57.5913V59.8784H80.0127H46.4805V57.5913C46.4805 54.5332 46.4556 54.4809 44.8306 54.4809C44.0821 54.4809 43.3604 54.3525 43.1802 54.1728C42.9727 53.9677 42.8701 52.708 42.8701 50.2407C42.8701 47.7739 42.7671 46.5141 42.5605 46.3086C42.3798 46.1284 41.7602 46 41.1416 46C40.3169 46 39.9814 46.1285 39.7744 46.4883ZM82.6172 86.6084C85.5059 87.5068 88.0088 90.001 88.7832 92.7764C89.2217 94.3194 89.0928 96.9922 88.499 98.5596C87.8027 100.435 85.8144 102.569 83.9336 103.495C82.6436 104.137 82.1797 104.214 80.0127 104.214C77.8462 104.214 77.3818 104.137 76.0923 103.495C74.208 102.569 72.2232 100.435 71.5264 98.5596C70.9336 96.9922 70.8037 94.3194 71.2427 92.7764C71.9907 90.0528 74.4922 87.5069 77.3042 86.6084C79.3164 85.9659 80.6045 85.9659 82.6172 86.6084Z" fill="#363636"/>
<path d="M77.7941 90.4375C75.7575 91.3633 74.2873 94.0869 74.7253 96.168C75.4992 99.8448 79.5485 101.721 82.7209 99.8701C84.7063 98.7119 85.7121 96.3232 85.1721 94.0869C84.6037 91.6963 82.4377 89.9492 80.0129 89.9492C79.3674 89.9493 78.3874 90.1807 77.7941 90.4375Z" fill="#363636"/>
<path d="M50.0918 46.1543C46.1714 46.8223 45.5786 47.2852 45.5786 49.5981C45.5786 51.4228 46.0425 52.0141 47.8467 52.5537C49.3965 53.0161 55.0191 53.0678 58.3467 52.682C65.2075 51.8597 69.6685 50.1376 68.0454 48.93C66.7803 48.0301 63.1431 47.0536 58.9912 46.54C56.5156 46.232 50.9951 46 50.0918 46.1543Z" fill="#363636"/>
<path d="M103.484 46.2579C97.1651 46.8482 91.6201 48.3389 91.6201 49.4438C91.6201 51.166 99.4609 52.9136 107.25 52.9395C113.054 52.9395 114.446 52.2973 114.446 49.5981C114.446 47.7739 113.827 46.9766 112.073 46.5142C110.424 46.1026 106.398 46 103.484 46.2579Z" fill="#363636"/>
<path d="M126.777 46.2833C124.996 46.5143 123.758 47.0538 123.346 47.774C122.959 48.5445 123.036 50.6778 123.5 51.3458C124.428 52.6568 125.152 52.811 130.569 52.811C134.23 52.811 136.37 52.6822 138.435 52.3228C141.969 51.7315 145.038 50.8062 145.683 50.0865C146.173 49.5465 146.173 49.5465 145.45 48.9303C144.11 47.7994 139.492 46.7452 133.534 46.2579C130.053 45.9747 129.046 45.9747 126.777 46.2833Z" fill="#363636"/>
</g>
<defs>
<clipPath id="clip0">
<rect width="132" height="69" fill="white" transform="translate(14 46)"/>
</clipPath>
</defs>
</svg>
