<svg width="160" height="160" viewBox="0 0 160 160" fill="none" xmlns="http://www.w3.org/2000/svg">
<rect width="160" height="160" fill="#F7E296"/>
<g clip-path="url(#clip0)">
<path d="M115.131 84.639V72.003C115.131 70.694 116.176 69.633 117.466 69.633L125.792 71.2141V63.02C125.792 60.665 124.084 59.589 121.59 58.755L98.4031 52.175C100.019 53.566 100.292 54.215 100.292 56.571V101.78C100.292 104.136 99.8421 105.846 98.3251 106.99L121.59 99.925C123.991 99.092 125.792 95.709 125.792 93.3531V85.44L117.466 87.007C116.176 87.009 115.131 85.947 115.131 84.639Z" fill="#363636"/>
<path d="M126.129 72.979L118.531 71.535C117.523 71.535 116.707 72.364 116.707 73.386V83.254C116.707 84.277 117.523 85.106 118.531 85.106L126.129 83.675C127.283 83.256 127.953 82.846 127.953 81.823V74.83C127.953 73.808 127.187 73.323 126.129 72.979Z" fill="#363636"/>
<path d="M98.17 56.483C98.17 51.403 93.938 52.024 93.938 52.024C93.938 52.024 36.832 56.738 33.838 57.145C30.844 57.552 31.001 61.532 31.001 61.532C31.001 61.532 31 94.069 31 97.812C31 101.555 33.599 101.565 33.599 101.565L50.076 102.968L58.212 91.3C58.212 91.3 59.321 89.472 60.717 89.472C62.114 89.472 63.149 91.333 63.149 91.333L72.21 104.854C72.21 104.854 91.105 106.763 94.731 106.763C98.357 106.762 98.17 101.739 98.17 101.739C98.17 101.739 98.17 61.563 98.17 56.483ZM43.982 89.192C40.284 89.192 37.286 84.591 37.286 78.917C37.286 73.243 40.284 68.642 43.982 68.642C47.68 68.642 50.678 73.243 50.678 78.917C50.678 84.591 47.68 89.192 43.982 89.192ZM80.14 90.618C75.4781 90.618 71.6991 85.379 71.6991 78.917C71.6991 72.454 75.479 67.215 80.14 67.215C84.802 67.215 88.5821 72.454 88.5821 78.917C88.5821 85.379 84.802 90.618 80.14 90.618Z" fill="#363636"/>
</g>
<defs>
<clipPath id="clip0">
<rect width="97" height="55" fill="white" transform="translate(31 52)"/>
</clipPath>
</defs>
</svg>
